<mxfile host="app.diagrams.net" modified="2023-09-25T19:06:34.953Z" agent="Mozilla/5.0 (Windows NT 10.0; Win64; x64) AppleWebKit/537.36 (KHTML, like Gecko) Chrome/116.0.0.0 Safari/537.36" etag="-T4hUf3AvugKv1L_pyzt" version="21.8.2" type="device">
  <diagram id="C5RBs43oDa-KdzZeNtuy" name="Page-1">
    <mxGraphModel dx="1467" dy="1912" grid="1" gridSize="10" guides="1" tooltips="1" connect="1" arrows="1" fold="1" page="1" pageScale="1" pageWidth="827" pageHeight="1169" math="0" shadow="0">
      <root>
        <mxCell id="WIyWlLk6GJQsqaUBKTNV-0" />
        <mxCell id="WIyWlLk6GJQsqaUBKTNV-1" parent="WIyWlLk6GJQsqaUBKTNV-0" />
        <mxCell id="X12Sve7pmGeerBydcGrO-101" value="Colors" style="swimlane;fontStyle=1;align=center;verticalAlign=top;childLayout=stackLayout;horizontal=1;startSize=26;horizontalStack=0;resizeParent=1;resizeParentMax=0;resizeLast=0;collapsible=1;marginBottom=0;whiteSpace=wrap;html=1;strokeColor=default;fontFamily=Helvetica;fontSize=12;fontColor=default;fillColor=default;" parent="WIyWlLk6GJQsqaUBKTNV-1" vertex="1">
          <mxGeometry x="680" y="-800" width="120" height="140" as="geometry">
            <mxRectangle x="40" y="80" width="100" height="30" as="alternateBounds" />
          </mxGeometry>
        </mxCell>
        <mxCell id="X12Sve7pmGeerBydcGrO-102" value="&lt;div&gt;+ RESET&lt;/div&gt;&lt;div&gt;+ RED&lt;/div&gt;&lt;div&gt;+ GREEN&lt;/div&gt;&lt;div&gt;+ YELLOW&lt;/div&gt;&lt;div&gt;+ BLUE&lt;/div&gt;&lt;div&gt;+ MAGENTA&amp;nbsp;&lt;/div&gt;&lt;div&gt;+ CYAN&lt;/div&gt;" style="text;strokeColor=none;fillColor=none;align=left;verticalAlign=top;spacingLeft=4;spacingRight=4;overflow=hidden;rotatable=0;points=[[0,0.5],[1,0.5]];portConstraint=eastwest;whiteSpace=wrap;html=1;fontSize=12;fontFamily=Helvetica;fontColor=default;" parent="X12Sve7pmGeerBydcGrO-101" vertex="1">
          <mxGeometry y="26" width="120" height="114" as="geometry" />
        </mxCell>
        <mxCell id="Xs8DmJK0wojY1aPoW34--0" value="main()" style="swimlane;fontStyle=1;align=center;verticalAlign=top;childLayout=stackLayout;horizontal=1;startSize=26;horizontalStack=0;resizeParent=1;resizeParentMax=0;resizeLast=0;collapsible=1;marginBottom=0;whiteSpace=wrap;html=1;strokeColor=default;fontFamily=Helvetica;fontSize=12;fontColor=default;fillColor=default;" vertex="1" parent="WIyWlLk6GJQsqaUBKTNV-1">
          <mxGeometry x="670" y="-550" width="120" height="52" as="geometry">
            <mxRectangle x="40" y="80" width="100" height="30" as="alternateBounds" />
          </mxGeometry>
        </mxCell>
        <mxCell id="Xs8DmJK0wojY1aPoW34--1" value="+&amp;nbsp;user_input" style="text;strokeColor=none;fillColor=none;align=left;verticalAlign=top;spacingLeft=4;spacingRight=4;overflow=hidden;rotatable=0;points=[[0,0.5],[1,0.5]];portConstraint=eastwest;whiteSpace=wrap;html=1;fontSize=12;fontFamily=Helvetica;fontColor=default;" vertex="1" parent="Xs8DmJK0wojY1aPoW34--0">
          <mxGeometry y="26" width="120" height="26" as="geometry" />
        </mxCell>
        <mxCell id="Xs8DmJK0wojY1aPoW34--12" value="NoteManager" style="swimlane;fontStyle=1;align=center;verticalAlign=top;childLayout=stackLayout;horizontal=1;startSize=26;horizontalStack=0;resizeParent=1;resizeParentMax=0;resizeLast=0;collapsible=1;marginBottom=0;whiteSpace=wrap;html=1;strokeColor=default;fontFamily=Helvetica;fontSize=12;fontColor=default;fillColor=default;" vertex="1" parent="WIyWlLk6GJQsqaUBKTNV-1">
          <mxGeometry x="30" y="-780" width="270" height="376" as="geometry">
            <mxRectangle x="40" y="80" width="100" height="30" as="alternateBounds" />
          </mxGeometry>
        </mxCell>
        <mxCell id="Xs8DmJK0wojY1aPoW34--13" value="+&amp;nbsp;COMMANDS{}" style="text;strokeColor=none;fillColor=none;align=left;verticalAlign=top;spacingLeft=4;spacingRight=4;overflow=hidden;rotatable=0;points=[[0,0.5],[1,0.5]];portConstraint=eastwest;whiteSpace=wrap;html=1;fontSize=12;fontFamily=Helvetica;fontColor=default;" vertex="1" parent="Xs8DmJK0wojY1aPoW34--12">
          <mxGeometry y="26" width="270" height="26" as="geometry" />
        </mxCell>
        <mxCell id="Xs8DmJK0wojY1aPoW34--16" value="" style="line;strokeWidth=1;fillColor=none;align=left;verticalAlign=middle;spacingTop=-1;spacingLeft=3;spacingRight=3;rotatable=0;labelPosition=right;points=[];portConstraint=eastwest;strokeColor=inherit;fontFamily=Helvetica;fontSize=12;fontColor=default;startSize=30;" vertex="1" parent="Xs8DmJK0wojY1aPoW34--12">
          <mxGeometry y="52" width="270" height="8" as="geometry" />
        </mxCell>
        <mxCell id="Xs8DmJK0wojY1aPoW34--41" value="+&amp;nbsp;save_notes_to_file(file_path=notes.json)&lt;br&gt;+ load_notes_from_file(file_path=notes.json):&lt;br&gt;&lt;span style=&quot;background-color: initial;&quot;&gt;+ __init__()&lt;/span&gt;&lt;br&gt;&lt;span style=&quot;background-color: initial;&quot;&gt;&lt;div&gt;+ add_note(text, tags)&lt;/div&gt;&lt;div&gt;+ search_notes_by_tag(tag)&lt;/div&gt;&lt;div&gt;+ search_notes_by_text(query)&lt;/div&gt;&lt;div&gt;+ edit_note (index, new_text)&lt;/div&gt;&lt;div&gt;+ delete_note(index)&lt;/div&gt;&lt;div&gt;+ get_all_notes()&lt;/div&gt;&lt;div&gt;+ sort_notes_by_tags(tag)&lt;/div&gt;&lt;div&gt;+ add_note_command(*args)&lt;/div&gt;&lt;div&gt;+ search_notes_by_tag_command(*args)&lt;/div&gt;&lt;div&gt;+ search_notes_by_text_command(*args)&lt;/div&gt;&lt;div&gt;+ edit_note_command(*args)&lt;/div&gt;&lt;div&gt;+ delete_note_command(*args)&lt;/div&gt;&lt;div&gt;+ get_all_notes_command(*args)&lt;/div&gt;&lt;div&gt;+ no_command(*args)&lt;/div&gt;&lt;div&gt;+ exit_command(*args)&lt;/div&gt;&lt;div&gt;+ command_handler(text)&lt;/div&gt;&lt;div&gt;+ help(*args)&lt;/div&gt;&lt;div&gt;+ main()&lt;/div&gt;&lt;/span&gt;" style="text;strokeColor=none;fillColor=none;align=left;verticalAlign=top;spacingLeft=4;spacingRight=4;overflow=hidden;rotatable=0;points=[[0,0.5],[1,0.5]];portConstraint=eastwest;whiteSpace=wrap;html=1;fontSize=12;fontFamily=Helvetica;fontColor=default;" vertex="1" parent="Xs8DmJK0wojY1aPoW34--12">
          <mxGeometry y="60" width="270" height="316" as="geometry" />
        </mxCell>
        <mxCell id="Xs8DmJK0wojY1aPoW34--43" value="Note" style="swimlane;fontStyle=1;align=center;verticalAlign=top;childLayout=stackLayout;horizontal=1;startSize=26;horizontalStack=0;resizeParent=1;resizeParentMax=0;resizeLast=0;collapsible=1;marginBottom=0;whiteSpace=wrap;html=1;strokeColor=default;fontFamily=Helvetica;fontSize=12;fontColor=default;fillColor=default;" vertex="1" parent="WIyWlLk6GJQsqaUBKTNV-1">
          <mxGeometry x="40" y="-330" width="120" height="160" as="geometry">
            <mxRectangle x="40" y="80" width="100" height="30" as="alternateBounds" />
          </mxGeometry>
        </mxCell>
        <mxCell id="Xs8DmJK0wojY1aPoW34--44" value="+&amp;nbsp;text&lt;br&gt;+ tags" style="text;strokeColor=none;fillColor=none;align=left;verticalAlign=top;spacingLeft=4;spacingRight=4;overflow=hidden;rotatable=0;points=[[0,0.5],[1,0.5]];portConstraint=eastwest;whiteSpace=wrap;html=1;fontSize=12;fontFamily=Helvetica;fontColor=default;" vertex="1" parent="Xs8DmJK0wojY1aPoW34--43">
          <mxGeometry y="26" width="120" height="44" as="geometry" />
        </mxCell>
        <mxCell id="Xs8DmJK0wojY1aPoW34--45" value="" style="line;strokeWidth=1;fillColor=none;align=left;verticalAlign=middle;spacingTop=-1;spacingLeft=3;spacingRight=3;rotatable=0;labelPosition=right;points=[];portConstraint=eastwest;strokeColor=inherit;fontFamily=Helvetica;fontSize=12;fontColor=default;startSize=30;" vertex="1" parent="Xs8DmJK0wojY1aPoW34--43">
          <mxGeometry y="70" width="120" height="8" as="geometry" />
        </mxCell>
        <mxCell id="Xs8DmJK0wojY1aPoW34--46" value="+&amp;nbsp;__init__()&lt;br&gt;+&amp;nbsp;__str__()&lt;br&gt;+&amp;nbsp;add_tag(tag)&lt;br&gt;+&amp;nbsp;remove_tag(tag)&lt;br&gt;+&amp;nbsp;has_tag(tag)" style="text;strokeColor=none;fillColor=none;align=left;verticalAlign=top;spacingLeft=4;spacingRight=4;overflow=hidden;rotatable=0;points=[[0,0.5],[1,0.5]];portConstraint=eastwest;whiteSpace=wrap;html=1;fontSize=12;fontFamily=Helvetica;fontColor=default;" vertex="1" parent="Xs8DmJK0wojY1aPoW34--43">
          <mxGeometry y="78" width="120" height="82" as="geometry" />
        </mxCell>
        <mxCell id="Xs8DmJK0wojY1aPoW34--50" value="ContactBook" style="swimlane;fontStyle=1;align=center;verticalAlign=top;childLayout=stackLayout;horizontal=1;startSize=26;horizontalStack=0;resizeParent=1;resizeParentMax=0;resizeLast=0;collapsible=1;marginBottom=0;whiteSpace=wrap;html=1;strokeColor=default;fontFamily=Helvetica;fontSize=12;fontColor=default;fillColor=default;" vertex="1" parent="WIyWlLk6GJQsqaUBKTNV-1">
          <mxGeometry x="340" y="-364" width="210" height="200" as="geometry">
            <mxRectangle x="40" y="80" width="100" height="30" as="alternateBounds" />
          </mxGeometry>
        </mxCell>
        <mxCell id="Xs8DmJK0wojY1aPoW34--53" value="&lt;div&gt;+ __init__()&lt;/div&gt;&lt;div&gt;+ input_error(func)&lt;/div&gt;&lt;div&gt;+ is_valid_phone_number(number)&lt;/div&gt;&lt;div&gt;+ add_contact()&lt;/div&gt;&lt;div&gt;+ change_contact()&lt;/div&gt;&lt;div&gt;+ delete_contact()&amp;nbsp;&amp;nbsp;&lt;/div&gt;&lt;div&gt;+ find_contact_by_name(name)&amp;nbsp;&amp;nbsp;&lt;/div&gt;&lt;div&gt;+ show_all_contacts()&lt;/div&gt;&lt;div&gt;+ days_until_birthday(birthday)&lt;/div&gt;&lt;div&gt;+ upcoming_birthday_contact()&lt;/div&gt;&lt;div&gt;+ main()&lt;/div&gt;" style="text;strokeColor=none;fillColor=none;align=left;verticalAlign=top;spacingLeft=4;spacingRight=4;overflow=hidden;rotatable=0;points=[[0,0.5],[1,0.5]];portConstraint=eastwest;whiteSpace=wrap;html=1;fontSize=12;fontFamily=Helvetica;fontColor=default;" vertex="1" parent="Xs8DmJK0wojY1aPoW34--50">
          <mxGeometry y="26" width="210" height="174" as="geometry" />
        </mxCell>
        <mxCell id="Xs8DmJK0wojY1aPoW34--54" value="CryptoPriceFetcher" style="swimlane;fontStyle=1;align=center;verticalAlign=top;childLayout=stackLayout;horizontal=1;startSize=26;horizontalStack=0;resizeParent=1;resizeParentMax=0;resizeLast=0;collapsible=1;marginBottom=0;whiteSpace=wrap;html=1;strokeColor=default;fontFamily=Helvetica;fontSize=12;fontColor=default;fillColor=default;" vertex="1" parent="WIyWlLk6GJQsqaUBKTNV-1">
          <mxGeometry x="740" y="-330" width="210" height="90" as="geometry">
            <mxRectangle x="40" y="80" width="100" height="30" as="alternateBounds" />
          </mxGeometry>
        </mxCell>
        <mxCell id="Xs8DmJK0wojY1aPoW34--55" value="&lt;div&gt;+ __init__(crypto_names=None)&lt;/div&gt;&lt;div&gt;+ get_crypto_prices()&lt;/div&gt;&lt;div&gt;+ display_crypto_prices()&lt;/div&gt;&lt;div&gt;&lt;br&gt;&lt;/div&gt;" style="text;strokeColor=none;fillColor=none;align=left;verticalAlign=top;spacingLeft=4;spacingRight=4;overflow=hidden;rotatable=0;points=[[0,0.5],[1,0.5]];portConstraint=eastwest;whiteSpace=wrap;html=1;fontSize=12;fontFamily=Helvetica;fontColor=default;" vertex="1" parent="Xs8DmJK0wojY1aPoW34--54">
          <mxGeometry y="26" width="210" height="64" as="geometry" />
        </mxCell>
        <mxCell id="Xs8DmJK0wojY1aPoW34--56" value="FileSorter" style="swimlane;fontStyle=1;align=center;verticalAlign=top;childLayout=stackLayout;horizontal=1;startSize=26;horizontalStack=0;resizeParent=1;resizeParentMax=0;resizeLast=0;collapsible=1;marginBottom=0;whiteSpace=wrap;html=1;strokeColor=default;fontFamily=Helvetica;fontSize=12;fontColor=default;fillColor=default;" vertex="1" parent="WIyWlLk6GJQsqaUBKTNV-1">
          <mxGeometry x="1070" y="-404" width="210" height="150" as="geometry">
            <mxRectangle x="40" y="80" width="100" height="30" as="alternateBounds" />
          </mxGeometry>
        </mxCell>
        <mxCell id="Xs8DmJK0wojY1aPoW34--57" value="&lt;div&gt;+ __init__(target_folder)&lt;/div&gt;&lt;div&gt;+ normalize(name)&lt;/div&gt;&lt;div&gt;+ handle_file(file_path)&lt;/div&gt;&lt;div&gt;+ extract_archive(archive_path)&lt;/div&gt;&lt;div&gt;+ process_folder(folder_path)&lt;/div&gt;&lt;div&gt;+ sort_files()&lt;/div&gt;&lt;div&gt;+ print_results()&lt;/div&gt;&lt;div&gt;+ run()&lt;/div&gt;" style="text;strokeColor=none;fillColor=none;align=left;verticalAlign=top;spacingLeft=4;spacingRight=4;overflow=hidden;rotatable=0;points=[[0,0.5],[1,0.5]];portConstraint=eastwest;whiteSpace=wrap;html=1;fontSize=12;fontFamily=Helvetica;fontColor=default;" vertex="1" parent="Xs8DmJK0wojY1aPoW34--56">
          <mxGeometry y="26" width="210" height="124" as="geometry" />
        </mxCell>
        <mxCell id="Xs8DmJK0wojY1aPoW34--65" value="" style="edgeStyle=elbowEdgeStyle;elbow=horizontal;endArrow=classic;html=1;curved=0;rounded=0;endSize=8;startSize=8;exitX=0;exitY=0.5;exitDx=0;exitDy=0;entryX=1.017;entryY=0.131;entryDx=0;entryDy=0;entryPerimeter=0;" edge="1" parent="WIyWlLk6GJQsqaUBKTNV-1" source="Xs8DmJK0wojY1aPoW34--1" target="Xs8DmJK0wojY1aPoW34--41">
          <mxGeometry width="50" height="50" relative="1" as="geometry">
            <mxPoint x="530" y="-450" as="sourcePoint" />
            <mxPoint x="290" y="-730" as="targetPoint" />
          </mxGeometry>
        </mxCell>
        <mxCell id="Xs8DmJK0wojY1aPoW34--66" value="" style="edgeStyle=elbowEdgeStyle;elbow=vertical;endArrow=classic;html=1;curved=0;rounded=0;endSize=8;startSize=8;exitX=0.25;exitY=1;exitDx=0;exitDy=0;entryX=0.5;entryY=0;entryDx=0;entryDy=0;" edge="1" parent="WIyWlLk6GJQsqaUBKTNV-1" source="Xs8DmJK0wojY1aPoW34--0" target="Xs8DmJK0wojY1aPoW34--50">
          <mxGeometry width="50" height="50" relative="1" as="geometry">
            <mxPoint x="530" y="-400" as="sourcePoint" />
            <mxPoint x="580" y="-450" as="targetPoint" />
          </mxGeometry>
        </mxCell>
        <mxCell id="Xs8DmJK0wojY1aPoW34--70" value="" style="edgeStyle=elbowEdgeStyle;elbow=horizontal;endArrow=classic;html=1;curved=0;rounded=0;endSize=8;startSize=8;entryX=0.5;entryY=0;entryDx=0;entryDy=0;" edge="1" parent="WIyWlLk6GJQsqaUBKTNV-1" source="X12Sve7pmGeerBydcGrO-102" target="Xs8DmJK0wojY1aPoW34--0">
          <mxGeometry width="50" height="50" relative="1" as="geometry">
            <mxPoint x="530" y="-400" as="sourcePoint" />
            <mxPoint x="580" y="-450" as="targetPoint" />
          </mxGeometry>
        </mxCell>
        <mxCell id="Xs8DmJK0wojY1aPoW34--74" value="" style="edgeStyle=elbowEdgeStyle;elbow=vertical;endArrow=classic;html=1;curved=0;rounded=0;endSize=8;startSize=8;exitX=0.803;exitY=0.974;exitDx=0;exitDy=0;entryX=0.452;entryY=0.027;entryDx=0;entryDy=0;entryPerimeter=0;exitPerimeter=0;" edge="1" parent="WIyWlLk6GJQsqaUBKTNV-1" source="Xs8DmJK0wojY1aPoW34--1" target="Xs8DmJK0wojY1aPoW34--56">
          <mxGeometry width="50" height="50" relative="1" as="geometry">
            <mxPoint x="530" y="-400" as="sourcePoint" />
            <mxPoint x="1165" y="-410" as="targetPoint" />
          </mxGeometry>
        </mxCell>
        <mxCell id="Xs8DmJK0wojY1aPoW34--76" value="" style="edgeStyle=elbowEdgeStyle;elbow=vertical;endArrow=classic;html=1;curved=0;rounded=0;endSize=8;startSize=8;entryX=0.39;entryY=-0.027;entryDx=0;entryDy=0;entryPerimeter=0;" edge="1" parent="WIyWlLk6GJQsqaUBKTNV-1" target="Xs8DmJK0wojY1aPoW34--54">
          <mxGeometry width="50" height="50" relative="1" as="geometry">
            <mxPoint x="740" y="-500" as="sourcePoint" />
            <mxPoint x="680" y="-460" as="targetPoint" />
          </mxGeometry>
        </mxCell>
        <mxCell id="Xs8DmJK0wojY1aPoW34--79" value="" style="edgeStyle=elbowEdgeStyle;elbow=vertical;endArrow=classic;html=1;curved=0;rounded=0;endSize=8;startSize=8;exitX=0.5;exitY=0;exitDx=0;exitDy=0;entryX=0.554;entryY=1.012;entryDx=0;entryDy=0;entryPerimeter=0;" edge="1" parent="WIyWlLk6GJQsqaUBKTNV-1" source="Xs8DmJK0wojY1aPoW34--43" target="Xs8DmJK0wojY1aPoW34--41">
          <mxGeometry width="50" height="50" relative="1" as="geometry">
            <mxPoint x="660" y="-200" as="sourcePoint" />
            <mxPoint x="710" y="-250" as="targetPoint" />
          </mxGeometry>
        </mxCell>
      </root>
    </mxGraphModel>
  </diagram>
</mxfile>
